<?xml version="1.0" encoding="UTF-8" standalone="no"?>
<!-- Created with Inkscape (http://www.inkscape.org/) -->

<svg
   xmlns:svg="http://www.w3.org/2000/svg"
   xmlns="http://www.w3.org/2000/svg"
   version="1.1"
   width="145"
   height="48"
   viewBox="0 0 145 48" preserveAspectRatio="none">
      <path
         d="m 144.91602,446.04102 c -2e-5,1.64062 -0.4844,3.04687 -1.45313,4.21875 -1.17189,1.41406 -2.83205,2.12109 -4.98047,2.12109 -1.08595,0 -2.64649,-0.17188 -4.68164,-0.51563 -2.03516,-0.34375 -3.43555,-0.51562 -4.20117,-0.51562 -1.03907,0 -1.84766,0.19141 -2.42578,0.57422 l 0.0469,-2.97656 c 0.23438,-0.10156 0.53125,-0.15235 0.89063,-0.15235 0.57812,0 1.17187,0.15235 1.78125,0.45703 -1.02344,-3.61718 -1.53516,-7.6328 -1.53516,-12.04687 0,-0.0625 0.004,-0.1621 0.0117,-0.29883 0.008,-0.1367 0.0117,-0.23631 0.0117,-0.29883 0,-0.53123 -0.25,-0.85154 -0.75,-0.96094 -0.50781,-0.0703 -1.01172,-0.1406 -1.51172,-0.21093 -0.14062,-0.0469 -0.21094,-0.40624 -0.21094,-1.07813 0,-0.72654 0.0391,-1.24998 0.11719,-1.57031 1.69531,1.04689 3.71875,1.57033 6.07031,1.57031 1.15625,2e-5 2.42968,-0.12889 3.82032,-0.38672 1.03905,-0.19529 1.93358,-0.29295 2.68359,-0.29297 1.6328,2e-5 2.8242,0.39455 3.57422,1.1836 0.56248,0.58595 0.84373,1.33595 0.84375,2.25 -2e-5,2.43751 -1.03127,3.98829 -3.09375,4.65234 0.10936,-0.0156 0.28514,-0.0234 0.52734,-0.0234 1.49999,10e-6 2.65233,0.46876 3.45703,1.40625 0.67186,0.78126 1.0078,1.7461 1.00782,2.89454 z m -4.80469,-7.96875 c -2e-5,-0.40624 -0.37111,-0.73046 -1.11328,-0.97266 -0.66408,-0.21874 -1.45314,-0.32811 -2.36719,-0.32813 -1.09376,2e-5 -2.22657,0.23049 -3.39844,0.69141 -1.20313,0.47658 -1.80469,0.96095 -1.80469,1.45313 0,0.35938 0.39844,0.68751 1.19532,0.98437 0.77343,0.28126 1.58983,0.42189 2.44922,0.42188 0.96092,10e-6 2.0078,-0.21874 3.14062,-0.65625 1.26561,-0.49218 1.89842,-1.02343 1.89844,-1.59375 z m 2.13281,8.47265 c -2e-5,-0.58593 -0.59376,-1.09765 -1.78125,-1.53515 -1.1172,-0.41406 -2.31251,-0.62109 -3.58594,-0.6211 -1.00001,1e-5 -1.9336,0.1211 -2.80078,0.36328 -1.00001,0.28126 -1.5,0.63673 -1.5,1.06641 0,0.52344 0.57421,1.05079 1.72266,1.58203 1.17968,0.54688 2.3828,0.82032 3.60937,0.82031 1.24218,10e-6 2.27538,-0.15429 3.09961,-0.46289 0.82421,-0.30859 1.23631,-0.71288 1.23633,-1.21289 z m -15.55078,3 c -0.25002,0.46094 -0.64065,1.15625 -1.17188,2.08594 -1.28127,-0.0625 -2.1758,-0.0937 -2.68359,-0.0937 -1.75783,0 -3.6797,0.17578 -5.76562,0.52734 0.19529,-1.34375 0.29295,-2.67187 0.29296,-3.98437 -1e-5,-1.44531 -0.1211,-2.57421 -0.36328,-3.38672 -1.28907,-0.12499 -3.29688,-0.33984 -6.02343,-0.64453 -0.25782,0.91407 -0.5547,1.83204 -0.89063,2.7539 -0.38282,1.0547 -0.79688,1.95313 -1.24219,2.69532 0.46094,0.10937 1.65234,0.21094 3.57422,0.30468 -0.14844,1.00782 -0.22266,1.92969 -0.22265,2.76563 -1.77345,-0.59375 -3.4297,-1.08203 -4.96875,-1.46484 -1.02344,-0.25782 -2.33594,-0.53125 -3.9375,-0.82032 0.21875,-0.28125 0.48437,-0.64062 0.79687,-1.07812 l 0.62109,-0.85547 c 0.28125,0.11719 0.73047,0.31641 1.34766,0.59766 1.17968,-1.625 2.24218,-3.98437 3.1875,-7.07813 0.99999,-3.24217 1.53906,-5.90623 1.61719,-7.99219 1.16405,-0.1406 2.24218,-0.31639 3.23437,-0.52734 1.02343,-0.22654 2.1289,-0.53904 3.31641,-0.9375 1.15623,1.88283 2.42576,4.72267 3.80859,8.51953 0.6328,1.83595 1.47264,4.26563 2.51953,7.28906 0.14842,0.40626 0.58202,0.72266 1.30079,0.94922 0.55466,0.125 1.10544,0.25 1.65234,0.375 z m -8.95313,-10.48828 c -1e-5,-1.0703 -0.72657,-1.60545 -2.17968,-1.60547 -1.0547,2e-5 -2.00783,0.28127 -2.85938,0.84375 -0.89063,0.58595 -1.33594,1.26173 -1.33594,2.02735 0,1.01563 0.87109,1.52344 2.61329,1.52343 2.5078,10e-6 3.7617,-0.92967 3.76171,-2.78906 z m -14.34375,6.29297 c -1e-5,1.17969 -0.1797,2.33203 -0.53906,3.45703 -0.25783,0.8125 -0.6133,1.60156 -1.0664,2.36719 -0.25002,0.39062 -0.49611,0.78515 -0.73829,1.18359 -0.0625,0.10156 -0.16798,0.14063 -0.3164,0.11719 -2.882827,-0.4375 -5.625012,-0.65625 -8.226564,-0.65625 -3.437505,0 -5.503909,0.47265 -6.199219,1.41797 l -0.527344,-2.95313 c 0.421874,-0.28125 0.964842,-0.42187 1.628906,-0.42187 0.335935,0 0.722653,0.0469 1.160157,0.14062 -1.078128,-2.69531 -1.61719,-6.40624 -1.617188,-11.13281 -2e-6,-0.35155 0.0098,-0.88866 0.0293,-1.61133 0.01953,-0.72264 0.0293,-1.27537 0.0293,-1.6582 -2e-6,-0.66405 -0.355471,-1.06248 -1.066406,-1.19531 -0.257814,-0.0312 -0.656251,-0.0976 -1.195313,-0.19922 -0.210937,-0.0547 -0.316406,-0.42967 -0.316406,-1.125 0,-0.17967 0.01563,-0.34764 0.04687,-0.50391 0.148437,0.0703 3.664059,0.4219 10.546875,1.05469 -0.664072,1.35158 -1.26954,3.10939 -1.816406,5.27344 -0.585946,2.28907 -0.878914,4.17188 -0.878907,5.64843 -7e-6,3.53907 1.351554,5.3086 4.054688,5.3086 1.960924,0 3.437485,-0.37109 4.429687,-1.11328 0.72655,-0.53906 1.08983,-1.14453 1.08984,-1.81641 -10e-6,-0.35156 -0.0859,-0.52734 -0.25781,-0.52734 -0.0391,0 -0.0781,0.0156 -0.11719,0.0469 -1.19532,0.82813 -2.421885,1.24219 -3.679683,1.24219 -1.14845,0 -2.066418,-0.39062 -2.753907,-1.17188 -0.304697,-0.34374 -0.457041,-0.71093 -0.457031,-1.10156 -1e-5,-0.64062 0.371084,-1.26562 1.113281,-1.875 0.718739,-0.60155 1.660144,-1.08202 2.824219,-1.4414 0.92186,-0.28906 1.679671,-0.43359 2.273441,-0.4336 1.69529,1e-5 2.54295,1.22657 2.54296,3.67969 z m -28.980464,1.99219 c -1.8e-5,0.32031 -0.02345,0.63672 -0.07031,0.94922 -0.226579,1.49218 -1.332047,2.65234 -3.316406,3.48046 -1.83595,0.77344 -4.152353,1.16016 -6.949219,1.16016 -1.914067,0 -3.476566,-0.26563 -4.6875,-0.79687 -1.039063,-0.45313 -1.671875,-1.01172 -1.898437,-1.67579 -0.15625,-0.47656 -0.234375,-0.8789 -0.234375,-1.20703 0,-1.13281 1.078124,-1.84374 3.234375,-2.13281 0.726558,-0.0937 1.398433,-0.14062 2.015625,-0.14062 1.124993,0 2.015617,0.14063 2.671875,0.42187 0.656241,0.28125 0.984366,0.66797 0.984375,1.16016 -9e-6,0.51562 -0.23829,0.97266 -0.714844,1.37109 -0.593758,0.5 -1.492194,0.83594 -2.695313,1.00781 -0.718754,0.10157 -1.078129,0.25391 -1.078125,0.45703 -4e-6,0.21875 0.632808,0.32813 1.898438,0.32813 0.492181,0 0.92968,-0.0234 1.3125,-0.0703 1.101554,-0.13282 1.910147,-0.32422 2.425781,-0.57422 0.781239,-0.36719 1.156239,-0.91797 1.125,-1.65235 -0.101573,-2.3828 -1.277354,-3.57421 -3.527344,-3.57421 -0.22657,0 -0.685553,0.0274 -1.376953,0.082 -0.691412,0.0547 -1.181645,0.082 -1.470703,0.082 -2.359377,0 -3.539064,-0.80859 -3.539062,-2.42578 -2e-6,-0.38281 0.03516,-0.72656 0.105468,-1.03125 0.257811,-1.24218 0.964842,-2.23437 2.121094,-2.97657 1.32812,-0.85155 3.124994,-1.27733 5.390625,-1.27734 2.195302,10e-6 3.816394,0.19923 4.863281,0.59766 0.914048,0.34376 1.523423,0.89845 1.828125,1.66406 0.195297,0.47657 0.292953,0.85157 0.292969,1.125 -1.6e-5,0.88282 -0.937515,1.38673 -2.8125,1.51172 -0.351575,0.0156 -0.734387,0.0234 -1.148437,0.0234 -2.484385,0 -3.726571,-0.42968 -3.726563,-1.28907 -8e-6,-0.74999 0.433585,-1.31249 1.300781,-1.6875 0.109366,-0.0469 0.757803,-0.21483 1.945313,-0.5039 0.140613,-0.0312 0.210926,-0.0859 0.210937,-0.16407 -1.1e-5,-0.27342 -0.605479,-0.41014 -1.816406,-0.41015 -2.304695,10e-6 -3.457037,0.68751 -3.457031,2.0625 -6e-6,0.32032 0.06249,0.66407 0.1875,1.03125 0.289056,0.82813 0.74218,1.40626 1.359375,1.73437 0.507804,0.27345 1.207022,0.41017 2.097656,0.41016 0.304677,1e-5 0.796864,-0.0215 1.476563,-0.0644 0.679675,-0.043 1.187487,-0.0645 1.523437,-0.0645 1.312486,1e-5 2.29686,0.19923 2.953125,0.59766 0.796858,0.47657 1.195295,1.29688 1.195313,2.46094 z m -18.46875,-12.19922 c -6e-6,0.63283 -0.238287,1.35939 -0.714844,2.17969 -0.187504,0.32032 -0.375004,0.64063 -0.5625,0.96093 -0.195316,0.37502 -0.320316,0.71877 -0.375,1.03125 -0.164066,0.14845 -0.28516,0.22267 -0.363281,0.22266 -0.07813,1e-5 -0.125003,-0.039 -0.140625,-0.11719 -0.101566,-0.5703 -0.42969,-1.33202 -0.984375,-2.28515 -0.445314,-0.76561 -0.66797,-1.46093 -0.667969,-2.08594 -10e-7,-0.71873 0.193358,-1.33397 0.580078,-1.84571 0.386716,-0.51169 0.896482,-0.76755 1.529297,-0.76757 0.554683,2e-5 0.992183,0.31252 1.3125,0.9375 0.257807,0.51564 0.386713,1.10548 0.386719,1.76953 z m -5.109375,0.11719 c -1.2e-5,0.52345 -0.601574,0.96876 -1.804688,1.33593 -1.062509,0.32814 -2.187508,0.49221 -3.375,0.49219 -1.109381,2e-5 -2.019536,-0.20702 -2.730469,-0.62109 -0.820315,-0.48436 -1.230471,-1.17967 -1.230468,-2.08594 -3e-6,-1.17186 1.351558,-1.75779 4.054687,-1.75781 1.499992,2e-5 2.738272,0.27736 3.714844,0.83203 0.914051,0.51564 1.371082,1.1172 1.371094,1.80469 z m 0.09375,16.61718 c -1.585948,-0.28906 -3.273447,-0.43359 -5.0625,-0.43359 -1.726568,0 -4.140628,0.28516 -7.242188,0.85547 0.117188,-0.57813 0.25,-1.25 0.398438,-2.01563 1.249998,-0.14843 2.064451,-0.44726 2.443359,-0.89648 0.378903,-0.44922 0.697262,-1.2832 0.955078,-2.50195 0.249996,-1.15625 0.374996,-2.28515 0.375,-3.38672 -4e-6,-1.17187 -0.496097,-1.75781 -1.488281,-1.75782 -0.312502,10e-6 -0.609377,0.0352 -0.890625,0.10547 -0.429689,-0.9453 -0.644532,-1.62108 -0.644531,-2.02734 3.203121,-0.0234 6.195305,-0.55077 8.976562,-1.58203 0.03124,0.0234 0.04686,0.0899 0.04687,0.19922 -10e-6,0.17188 -0.03907,0.48438 -0.117187,0.9375 -0.50001,2.76563 -0.750009,5.06641 -0.75,6.90234 -9e-6,1.27344 0.152334,2.10547 0.457031,2.49609 0.18749,0.24219 0.453115,0.36329 0.796875,0.36329 0.390614,0 0.835926,-0.10547 1.335937,-0.31641 0.140614,-0.0547 0.222645,0.0117 0.246094,0.19922 0.08593,0.67969 0.140613,1.63281 0.164063,2.85937 z m -13.03125,0.48047 c -1.039071,-0.45312 -2.07032,-0.67969 -3.09375,-0.67969 -1.367192,0 -2.808597,0.36719 -4.324219,1.10157 -0.109376,0.0547 -0.179689,0.0742 -0.210938,0.0586 -0.03906,-0.0234 -0.04297,-0.0977 -0.01172,-0.22266 1.031247,-4.15624 1.546872,-7.56249 1.546875,-10.21875 -3e-6,-2.3203 -0.296878,-4.54686 -0.890625,-6.67968 -0.09375,-0.3203 -0.312502,-0.54686 -0.65625,-0.67969 -0.265626,-0.0937 -0.718751,-0.16405 -1.359375,-0.21094 -0.296875,-0.26561 -0.417969,-0.90232 -0.363282,-1.91015 0.04688,0.0156 0.183594,0.0234 0.410157,0.0234 1.156249,2e-5 3.707027,-0.21873 7.652343,-0.65625 0.531242,1.8594 0.796867,3.9258 0.796875,6.19922 -8e-6,4.18751 -0.785163,7.83594 -2.355468,10.94531 0.562493,-0.27343 1.128899,-0.41015 1.699218,-0.41015 0.453117,0 0.839836,0.0703 1.160157,0.21094 z m -9.84375,0 c -1.039071,-0.45312 -2.07032,-0.67969 -3.09375,-0.67969 -1.367192,0 -2.808597,0.36719 -4.324219,1.10157 -0.109376,0.0547 -0.179689,0.0742 -0.210938,0.0586 -0.03906,-0.0234 -0.04297,-0.0977 -0.01172,-0.22266 1.031247,-4.15624 1.546872,-7.56249 1.546875,-10.21875 -3e-6,-2.3203 -0.296878,-4.54686 -0.890625,-6.67968 -0.09375,-0.3203 -0.312502,-0.54686 -0.65625,-0.67969 -0.265626,-0.0937 -0.718751,-0.16405 -1.359375,-0.21094 -0.296875,-0.26561 -0.417969,-0.90232 -0.363282,-1.91015 0.04688,0.0156 0.183594,0.0234 0.410157,0.0234 1.156249,2e-5 3.707027,-0.21873 7.652343,-0.65625 0.531242,1.8594 0.796867,3.9258 0.796875,6.19922 -8e-6,4.18751 -0.785163,7.83594 -2.355468,10.94531 0.562493,-0.27343 1.128899,-0.41015 1.699218,-0.41015 0.453117,0 0.839836,0.0703 1.160157,0.21094 z m -9.398438,-12.45703 c -1.9e-5,1.46095 -0.375019,3.1797 -1.125,5.15625 -0.867204,2.27344 -1.953141,4.125 -3.257812,5.55469 -1.781263,1.94531 -3.82423,2.91796 -6.1289066,2.91797 -2.117194,-10e-6 -3.9765671,-0.92579 -5.578125,-2.77735 -1.65625136,-1.92187 -2.48437553,-4.23827 -2.48437503,-6.94922 -5e-7,-2.58592 0.8554674,-4.82811 2.56640623,-6.72656 1.8828076,-2.08592 4.3242114,-3.12889 7.3242188,-3.1289 5.7890466,10e-6 8.6835746,1.98439 8.6835936,5.95312 z m -3.1875,3.25781 c -1.6e-5,-1.09374 -0.617203,-2.01561 -1.851562,-2.76562 -1.203138,-0.74999 -2.652356,-1.12499 -4.3476566,-1.125 -1.5312582,10e-6 -3.0234442,0.4297 -4.4765625,1.28906 -1.5234412,0.89845 -2.2851592,1.88673 -2.2851563,2.96484 -2.9e-6,1.25782 0.7070276,2.30079 2.1210938,3.12891 1.2265562,0.71094 2.5351486,1.06641 3.9257812,1.06641 1.7499894,0 3.3476444,-0.49609 4.7929684,-1.48828 1.414048,-0.96094 2.121078,-1.98437 2.121094,-3.07032 z"
         id="path4586" transform="translate(0,-418.90625)" opacity="1" visibility="false" fill="#ffffff"/>
</svg>
