<?xml version="1.0" encoding="UTF-8" standalone="no"?>
<!-- Created with Inkscape (http://www.inkscape.org/) -->

<svg
   xmlns:dc="http://purl.org/dc/elements/1.1/"
   xmlns:cc="http://creativecommons.org/ns#"
   xmlns:rdf="http://www.w3.org/1999/02/22-rdf-syntax-ns#"
   xmlns:svg="http://www.w3.org/2000/svg"
   xmlns="http://www.w3.org/2000/svg"
   version="1.1"
   width="119.58026"
   height="46.079998"
   viewBox="0 0 119.58026 46.079998"
   id="svg3027">
  <metadata
     id="metadata3035">
    <rdf:RDF>
      <cc:Work
         rdf:about="">
        <dc:format>image/svg+xml</dc:format>
        <dc:type
           rdf:resource="http://purl.org/dc/dcmitype/StillImage" />
        <dc:title></dc:title>
      </cc:Work>
    </rdf:RDF>
  </metadata>
  <defs
     id="defs3033">
    <filter
       color-interpolation-filters="sRGB"
       id="filter4245">
      <feFlood
         result="flood"
         flood-color="rgb(0,0,0)"
         flood-opacity="0.5"
         id="feFlood4247" />
      <feComposite
         in2="SourceGraphic"
         operator="in"
         in="flood"
         result="composite1"
         id="feComposite4249" />
      <feGaussianBlur
         result="blur"
         stdDeviation="0.5"
         id="feGaussianBlur4251" />
      <feOffset
         result="offset"
         dy="0.7"
         dx="0.7"
         id="feOffset4253" />
      <feComposite
         in2="offset"
         operator="over"
         in="SourceGraphic"
         result="composite2"
         id="feComposite4255" />
    </filter>
    <filter
       color-interpolation-filters="sRGB"
       id="filter4261">
      <feFlood
         result="flood"
         flood-color="rgb(0,0,0)"
         flood-opacity="0.5"
         id="feFlood4263" />
      <feComposite
         in2="SourceGraphic"
         operator="in"
         in="flood"
         result="composite1"
         id="feComposite4265" />
      <feGaussianBlur
         result="blur"
         stdDeviation="0.5"
         id="feGaussianBlur4267" />
      <feOffset
         result="offset"
         dy="0.7"
         dx="0.7"
         id="feOffset4269" />
      <feComposite
         in2="offset"
         operator="over"
         in="SourceGraphic"
         result="composite2"
         id="feComposite4271" />
    </filter>
    <filter
       color-interpolation-filters="sRGB"
       id="filter4349">
      <feFlood
         result="flood"
         flood-color="rgb(0,0,0)"
         flood-opacity="0.5"
         id="feFlood4351" />
      <feComposite
         in2="SourceGraphic"
         operator="in"
         in="flood"
         result="composite1"
         id="feComposite4353" />
      <feGaussianBlur
         result="blur"
         stdDeviation="0.5"
         id="feGaussianBlur4355" />
      <feOffset
         result="offset"
         dy="0.7"
         dx="0.7"
         id="feOffset4357" />
      <feComposite
         in2="offset"
         operator="over"
         in="SourceGraphic"
         result="composite2"
         id="feComposite4359" />
    </filter>
  </defs>
  <g
     transform="translate(13.165571,7.04)"
     id="g4273"
     style="filter:url(#filter4349)">
    <path
       d="M 20.682,3.732 C 20.209,3.26 19.582,3 18.914,3 18.246,3 17.619,3.26 17.144,3.733 l -1.41,1.412 C 15.261,5.617 15,6.245 15,6.914 c 0,0.471 0.129,0.922 0.371,1.313 L 1.794,13.666 c -0.908,0.399 -1.559,1.218 -1.742,2.189 -0.185,0.977 0.125,1.979 0.834,2.687 l 12.72,12.58 c 0.548,0.548 1.276,0.859 2.045,0.877 C 15.669,32 15.711,32 15.729,32 c 0.202,0 0.407,-0.021 0.61,-0.062 0.994,-0.206 1.808,-0.893 2.177,-1.828 l 5.342,-13.376 c 0.402,0.265 0.875,0.407 1.367,0.407 0.67,0 1.297,-0.261 1.768,-0.733 L 28.4,15 c 0.477,-0.474 0.738,-1.103 0.738,-1.773 0,-0.67 -0.262,-1.3 -0.732,-1.768 L 20.682,3.732 z m -4.023,25.635 c -0.124,0.313 -0.397,0.544 -0.727,0.612 -0.076,0.016 -0.153,0.022 -0.229,0.021 -0.254,-0.006 -0.499,-0.108 -0.682,-0.292 L 2.293,17.12 C 2.059,16.887 1.956,16.553 2.018,16.227 2.079,15.903 2.297,15.629 2.6,15.497 l 6.217,-2.49 c 4.189,1.393 8.379,0.051 12.57,4.522 L 16.659,29.367 z M 26.992,13.58 25.578,14.993 c -0.195,0.196 -0.512,0.196 -0.707,0 l -1.768,-1.767 -1.432,3.589 0.119,-0.303 C 18.78,13.507 15.721,13.128 12.961,12.789 12.074,12.68 11.214,12.566 10.369,12.384 L 18.86,8.983 17.145,7.268 c -0.195,-0.195 -0.195,-0.512 0,-0.707 l 1.414,-1.415 c 0.195,-0.195 0.512,-0.195 0.707,0 l 7.725,7.727 c 0.198,0.195 0.198,0.512 0.001,0.707 z M 16.5,21 C 17.878,21 19,19.879 19,18.5 19,17.121 17.879,16 16.5,16 15.121,16 14,17.121 14,18.5 c 0,1.379 1.122,2.5 2.5,2.5 z m 0,-4 C 17.328,17 18,17.672 18,18.5 18,19.328 17.328,20 16.5,20 15.671,20 15,19.328 15,18.5 15,17.672 15.671,17 16.5,17 z M 29.5,0 C 28.121,0 27,1.121 27,2.5 27,3.879 28.121,5 29.5,5 30.879,5 32,3.879 32,2.5 32,1.121 30.879,0 29.5,0 z m 0,4 C 28.672,4 28,3.328 28,2.5 28,1.672 28.672,1 29.5,1 30.328,1 31,1.672 31,2.5 31,3.328 30.328,4 29.5,4 z M 8,17 c 0,1.103 0.897,2 2,2 1.103,0 2,-0.897 2,-2 0,-1.103 -0.897,-2 -2,-2 -1.103,0 -2,0.897 -2,2 z m 2,-1 c 0.552,0 1,0.447 1,1 0,0.553 -0.448,1 -1,1 -0.552,0 -1,-0.447 -1,-1 0,-0.553 0.448,-1 1,-1 z m 2,7 c 0,-0.552 0.448,-1 1,-1 0.552,0 1,0.448 1,1 0,0.552 -0.448,1 -1,1 -0.552,0 -1,-0.448 -1,-1 z M 28,8 c 0,-0.552 0.448,-1 1,-1 0.552,0 1,0.448 1,1 0,0.552 -0.448,1 -1,1 -0.552,0 -1,-0.448 -1,-1 z"
       id="path3029"
       style="filter:url(#filter4245)" />
    <text
       x="28.745762"
       y="22.644068"
       id="text4257"
       xml:space="preserve"
       style="font-size:40px;font-style:normal;font-weight:normal;line-height:125%;letter-spacing:0px;word-spacing:0px;fill-opacity:1;stroke:none;filter:url(#filter4261);font-family:Sans"><tspan
         x="28.745762"
         y="22.644068"
         id="tspan4259"
         style="font-size:16px;font-style:normal;font-variant:normal;font-weight:bold;font-stretch:normal;font-family:Arial Narrow;-inkscape-font-specification:Arial Narrow Bold">Olli's LAB</tspan></text>
  </g>
</svg>
