<svg xmlns="http://www.w3.org/2000/svg"><symbol viewBox="0 0 32 32" id="icon-facebook"><title>facebook</title> <g id="svgstoredc797f622402b225b6f665f4200e1b21icomoon-ignore"> <line stroke-width="1" x1="" y1="" x2="" y2="" opacity=""/> </g> <path d="M17.996 32h-5.996v-16h-4v-5.514l4-0.002-0.007-3.248c0-4.498 1.22-7.236 6.519-7.236h4.412v5.515h-2.757c-2.064 0-2.163 0.771-2.163 2.209l-0.008 2.76h4.959l-0.584 5.514-4.37 0.002-0.004 16z" opacity="1" visibility="false"/> </symbol><symbol viewBox="0 0 32 32" id="icon-github"><title>github</title> <g id="svgstoreb1b66b81804467353ba3a6d8846c6743icomoon-ignore"> <line stroke-width="1" x1="" y1="" x2="" y2="" opacity=""/> </g> <path d="M16 25.997c-0.599 0-1.197-0.31-1.817-0.93-0.244-0.244-0.244-0.64 0-0.884s0.64-0.244 0.884 0c0.381 0.382 0.687 0.567 0.933 0.567s0.552-0.185 0.933-0.567c0.244-0.244 0.64-0.244 0.884 0s0.244 0.64 0 0.884c-0.62 0.62-1.218 0.93-1.817 0.93zM0 16.422c0 1.559 0.133 2.973 0.4 4.24s0.642 2.367 1.125 3.298c0.483 0.931 1.094 1.747 1.833 2.448s1.542 1.279 2.408 1.733c0.867 0.454 1.858 0.822 2.975 1.102s2.253 0.477 3.408 0.589 2.428 0.168 3.817 0.168c1.389 0 2.664-0.056 3.825-0.168s2.3-0.308 3.417-0.589c1.117-0.28 2.111-0.648 2.983-1.102s1.681-1.032 2.425-1.733c0.744-0.701 1.358-1.517 1.842-2.448s0.861-2.030 1.133-3.298c0.272-1.268 0.408-2.681 0.408-4.24 0-2.793-0.867-5.199-2.6-7.218 0.1-0.269 0.186-0.578 0.258-0.925s0.142-0.838 0.208-1.472c0.067-0.634 0.042-1.366-0.075-2.196s-0.336-1.677-0.658-2.541l-0.25-0.051c-0.167-0.034-0.439-0.022-0.817 0.034s-0.819 0.157-1.325 0.303c-0.506 0.146-1.158 0.435-1.958 0.867s-1.644 0.979-2.533 1.641c-1.511-0.46-3.594-0.941-6.25-0.941s-4.744 0.481-6.267 0.941c-0.889-0.662-1.736-1.206-2.542-1.632s-1.45-0.718-1.933-0.875c-0.483-0.157-0.931-0.258-1.342-0.303s-0.675-0.059-0.792-0.042c-0.117 0.017-0.203 0.036-0.258 0.059-0.322 0.864-0.544 1.711-0.667 2.541s-0.15 1.559-0.083 2.187c0.067 0.628 0.139 1.122 0.217 1.481s0.167 0.667 0.267 0.925c-1.733 2.008-2.6 4.414-2.6 7.218zM4.267 19.981c0-1.813 0.667-3.457 2-4.933 0.4-0.45 0.864-0.791 1.392-1.022s1.128-0.363 1.8-0.394 1.314-0.025 1.925 0.019c0.611 0.044 1.367 0.103 2.267 0.178s1.678 0.113 2.333 0.113c0.655 0 1.433-0.037 2.333-0.113s1.656-0.134 2.267-0.178c0.611-0.044 1.253-0.050 1.925-0.019s1.275 0.163 1.808 0.394c0.533 0.231 1 0.572 1.4 1.022 1.333 1.476 2 3.12 2 4.933 0 1.063-0.111 2.010-0.333 2.842s-0.503 1.529-0.842 2.091c-0.339 0.563-0.814 1.038-1.425 1.426s-1.203 0.688-1.775 0.9c-0.572 0.212-1.311 0.378-2.217 0.497s-1.717 0.191-2.433 0.216c-0.717 0.025-1.619 0.038-2.708 0.038s-1.989-0.013-2.7-0.038c-0.711-0.025-1.519-0.097-2.425-0.216s-1.644-0.285-2.217-0.497c-0.572-0.213-1.164-0.513-1.775-0.9s-1.086-0.863-1.425-1.426c-0.339-0.563-0.62-1.26-0.842-2.091s-0.333-1.779-0.333-2.842zM8 19c0-1.657 0.895-3 2-3s2 1.343 2 3c0 1.657-0.895 3-2 3s-2-1.343-2-3zM20 19c0-1.657 0.895-3 2-3s2 1.343 2 3c0 1.657-0.895 3-2 3s-2-1.343-2-3z" opacity="1" visibility="false"/> </symbol><symbol viewBox="0 0 32 32" id="icon-googleplus"><title>googleplus</title> <g id="svgstore815bb63d54fe64eba40d468af8e9908eicomoon-ignore"> <line stroke-width="1" x1="" y1="" x2="" y2="" opacity=""/> </g> <path d="M17.471 2c0 0-6.28 0-8.373 0-3.754 0-7.287 2.844-7.287 6.138 0 3.366 2.559 6.083 6.378 6.083 0.266 0 0.524-0.005 0.776-0.024-0.248 0.475-0.425 1.009-0.425 1.564 0 0.936 0.503 1.694 1.14 2.313-0.481 0-0.945 0.014-1.452 0.014-4.649-0-8.228 2.961-8.228 6.032 0 3.024 3.923 4.916 8.573 4.916 5.301 0 8.228-3.008 8.228-6.032 0-2.425-0.715-3.877-2.928-5.442-0.757-0.536-2.204-1.839-2.204-2.604 0-0.897 0.256-1.34 1.607-2.395 1.385-1.082 2.365-2.603 2.365-4.372 0-2.106-0.938-4.159-2.699-4.837h2.655l1.874-1.355zM14.546 22.483c0.066 0.28 0.103 0.569 0.103 0.863 0 2.444-1.575 4.353-6.093 4.353-3.214 0-5.535-2.035-5.535-4.478 0-2.395 2.879-4.389 6.093-4.354 0.75 0.008 1.449 0.129 2.083 0.334 1.745 1.213 2.996 1.899 3.349 3.281zM9.401 13.368c-2.157-0.065-4.207-2.413-4.58-5.246s1.074-5.001 3.231-4.937c2.157 0.065 4.207 2.338 4.58 5.171s-1.075 5.077-3.231 5.012zM26 8v-6h-2v6h-6v2h6v6h2v-6h6v-2z" opacity="1" visibility="false"/> </symbol><symbol viewBox="0 0 32 32" id="icon-lab"><title>lab</title> <g id="svgstore16f7cefc6754db4c93a936133043d8b5icomoon-ignore"> <line stroke-width="1" x1="" y1="" x2="" y2="" opacity=""/> </g> <path d="M20.682 3.732c-0.473-0.472-1.1-0.732-1.768-0.732s-1.295 0.26-1.77 0.733l-1.41 1.412c-0.473 0.472-0.734 1.1-0.734 1.769 0 0.471 0.129 0.922 0.371 1.313l-13.577 5.439c-0.908 0.399-1.559 1.218-1.742 2.189-0.185 0.977 0.125 1.979 0.834 2.687l12.72 12.58c0.548 0.548 1.276 0.859 2.045 0.877 0.018 0.001 0.060 0.001 0.078 0.001 0.202 0 0.407-0.021 0.61-0.062 0.994-0.206 1.808-0.893 2.177-1.828l5.342-13.376c0.402 0.265 0.875 0.407 1.367 0.407 0.67 0 1.297-0.261 1.768-0.733l1.407-1.408c0.477-0.474 0.738-1.103 0.738-1.773s-0.262-1.3-0.732-1.768l-7.724-7.727zM16.659 29.367c-0.124 0.313-0.397 0.544-0.727 0.612-0.076 0.016-0.153 0.022-0.229 0.021-0.254-0.006-0.499-0.108-0.682-0.292l-12.728-12.588c-0.234-0.233-0.337-0.567-0.275-0.893 0.061-0.324 0.279-0.598 0.582-0.73l6.217-2.49c4.189 1.393 8.379 0.051 12.57 4.522l-4.728 11.838zM26.992 13.58l-1.414 1.413c-0.195 0.196-0.512 0.196-0.707 0l-1.768-1.767-1.432 3.589 0.119-0.303c-3.010-3.005-6.069-3.384-8.829-3.723-0.887-0.109-1.747-0.223-2.592-0.405l8.491-3.401-1.715-1.715c-0.195-0.195-0.195-0.512 0-0.707l1.414-1.415c0.195-0.195 0.512-0.195 0.707 0l7.725 7.727c0.198 0.195 0.198 0.512 0.001 0.707zM16.5 21c1.378 0 2.5-1.121 2.5-2.5s-1.121-2.5-2.5-2.5c-1.379 0-2.5 1.121-2.5 2.5s1.122 2.5 2.5 2.5zM16.5 17c0.828 0 1.5 0.672 1.5 1.5s-0.672 1.5-1.5 1.5c-0.829 0-1.5-0.672-1.5-1.5s0.671-1.5 1.5-1.5zM29.5 0c-1.379 0-2.5 1.121-2.5 2.5s1.121 2.5 2.5 2.5 2.5-1.121 2.5-2.5-1.121-2.5-2.5-2.5zM29.5 4c-0.828 0-1.5-0.672-1.5-1.5s0.672-1.5 1.5-1.5 1.5 0.672 1.5 1.5-0.672 1.5-1.5 1.5zM8 17c0 1.103 0.897 2 2 2s2-0.897 2-2-0.897-2-2-2-2 0.897-2 2zM10 16c0.552 0 1 0.447 1 1s-0.448 1-1 1-1-0.447-1-1 0.448-1 1-1zM12 23c0-0.552 0.448-1 1-1s1 0.448 1 1c0 0.552-0.448 1-1 1s-1-0.448-1-1zM28 8c0-0.552 0.448-1 1-1s1 0.448 1 1c0 0.552-0.448 1-1 1s-1-0.448-1-1z" opacity="1" visibility="false"/> </symbol><symbol viewBox="0 0 145 48" id="icon-labtext" preserveAspectRatio="none"><title>labtext</title> <path d="m 144.91602,446.04102 c -2e-5,1.64062 -0.4844,3.04687 -1.45313,4.21875 -1.17189,1.41406 -2.83205,2.12109 -4.98047,2.12109 -1.08595,0 -2.64649,-0.17188 -4.68164,-0.51563 -2.03516,-0.34375 -3.43555,-0.51562 -4.20117,-0.51562 -1.03907,0 -1.84766,0.19141 -2.42578,0.57422 l 0.0469,-2.97656 c 0.23438,-0.10156 0.53125,-0.15235 0.89063,-0.15235 0.57812,0 1.17187,0.15235 1.78125,0.45703 -1.02344,-3.61718 -1.53516,-7.6328 -1.53516,-12.04687 0,-0.0625 0.004,-0.1621 0.0117,-0.29883 0.008,-0.1367 0.0117,-0.23631 0.0117,-0.29883 0,-0.53123 -0.25,-0.85154 -0.75,-0.96094 -0.50781,-0.0703 -1.01172,-0.1406 -1.51172,-0.21093 -0.14062,-0.0469 -0.21094,-0.40624 -0.21094,-1.07813 0,-0.72654 0.0391,-1.24998 0.11719,-1.57031 1.69531,1.04689 3.71875,1.57033 6.07031,1.57031 1.15625,2e-5 2.42968,-0.12889 3.82032,-0.38672 1.03905,-0.19529 1.93358,-0.29295 2.68359,-0.29297 1.6328,2e-5 2.8242,0.39455 3.57422,1.1836 0.56248,0.58595 0.84373,1.33595 0.84375,2.25 -2e-5,2.43751 -1.03127,3.98829 -3.09375,4.65234 0.10936,-0.0156 0.28514,-0.0234 0.52734,-0.0234 1.49999,10e-6 2.65233,0.46876 3.45703,1.40625 0.67186,0.78126 1.0078,1.7461 1.00782,2.89454 z m -4.80469,-7.96875 c -2e-5,-0.40624 -0.37111,-0.73046 -1.11328,-0.97266 -0.66408,-0.21874 -1.45314,-0.32811 -2.36719,-0.32813 -1.09376,2e-5 -2.22657,0.23049 -3.39844,0.69141 -1.20313,0.47658 -1.80469,0.96095 -1.80469,1.45313 0,0.35938 0.39844,0.68751 1.19532,0.98437 0.77343,0.28126 1.58983,0.42189 2.44922,0.42188 0.96092,10e-6 2.0078,-0.21874 3.14062,-0.65625 1.26561,-0.49218 1.89842,-1.02343 1.89844,-1.59375 z m 2.13281,8.47265 c -2e-5,-0.58593 -0.59376,-1.09765 -1.78125,-1.53515 -1.1172,-0.41406 -2.31251,-0.62109 -3.58594,-0.6211 -1.00001,1e-5 -1.9336,0.1211 -2.80078,0.36328 -1.00001,0.28126 -1.5,0.63673 -1.5,1.06641 0,0.52344 0.57421,1.05079 1.72266,1.58203 1.17968,0.54688 2.3828,0.82032 3.60937,0.82031 1.24218,10e-6 2.27538,-0.15429 3.09961,-0.46289 0.82421,-0.30859 1.23631,-0.71288 1.23633,-1.21289 z m -15.55078,3 c -0.25002,0.46094 -0.64065,1.15625 -1.17188,2.08594 -1.28127,-0.0625 -2.1758,-0.0937 -2.68359,-0.0937 -1.75783,0 -3.6797,0.17578 -5.76562,0.52734 0.19529,-1.34375 0.29295,-2.67187 0.29296,-3.98437 -1e-5,-1.44531 -0.1211,-2.57421 -0.36328,-3.38672 -1.28907,-0.12499 -3.29688,-0.33984 -6.02343,-0.64453 -0.25782,0.91407 -0.5547,1.83204 -0.89063,2.7539 -0.38282,1.0547 -0.79688,1.95313 -1.24219,2.69532 0.46094,0.10937 1.65234,0.21094 3.57422,0.30468 -0.14844,1.00782 -0.22266,1.92969 -0.22265,2.76563 -1.77345,-0.59375 -3.4297,-1.08203 -4.96875,-1.46484 -1.02344,-0.25782 -2.33594,-0.53125 -3.9375,-0.82032 0.21875,-0.28125 0.48437,-0.64062 0.79687,-1.07812 l 0.62109,-0.85547 c 0.28125,0.11719 0.73047,0.31641 1.34766,0.59766 1.17968,-1.625 2.24218,-3.98437 3.1875,-7.07813 0.99999,-3.24217 1.53906,-5.90623 1.61719,-7.99219 1.16405,-0.1406 2.24218,-0.31639 3.23437,-0.52734 1.02343,-0.22654 2.1289,-0.53904 3.31641,-0.9375 1.15623,1.88283 2.42576,4.72267 3.80859,8.51953 0.6328,1.83595 1.47264,4.26563 2.51953,7.28906 0.14842,0.40626 0.58202,0.72266 1.30079,0.94922 0.55466,0.125 1.10544,0.25 1.65234,0.375 z m -8.95313,-10.48828 c -1e-5,-1.0703 -0.72657,-1.60545 -2.17968,-1.60547 -1.0547,2e-5 -2.00783,0.28127 -2.85938,0.84375 -0.89063,0.58595 -1.33594,1.26173 -1.33594,2.02735 0,1.01563 0.87109,1.52344 2.61329,1.52343 2.5078,10e-6 3.7617,-0.92967 3.76171,-2.78906 z m -14.34375,6.29297 c -1e-5,1.17969 -0.1797,2.33203 -0.53906,3.45703 -0.25783,0.8125 -0.6133,1.60156 -1.0664,2.36719 -0.25002,0.39062 -0.49611,0.78515 -0.73829,1.18359 -0.0625,0.10156 -0.16798,0.14063 -0.3164,0.11719 -2.882827,-0.4375 -5.625012,-0.65625 -8.226564,-0.65625 -3.437505,0 -5.503909,0.47265 -6.199219,1.41797 l -0.527344,-2.95313 c 0.421874,-0.28125 0.964842,-0.42187 1.628906,-0.42187 0.335935,0 0.722653,0.0469 1.160157,0.14062 -1.078128,-2.69531 -1.61719,-6.40624 -1.617188,-11.13281 -2e-6,-0.35155 0.0098,-0.88866 0.0293,-1.61133 0.01953,-0.72264 0.0293,-1.27537 0.0293,-1.6582 -2e-6,-0.66405 -0.355471,-1.06248 -1.066406,-1.19531 -0.257814,-0.0312 -0.656251,-0.0976 -1.195313,-0.19922 -0.210937,-0.0547 -0.316406,-0.42967 -0.316406,-1.125 0,-0.17967 0.01563,-0.34764 0.04687,-0.50391 0.148437,0.0703 3.664059,0.4219 10.546875,1.05469 -0.664072,1.35158 -1.26954,3.10939 -1.816406,5.27344 -0.585946,2.28907 -0.878914,4.17188 -0.878907,5.64843 -7e-6,3.53907 1.351554,5.3086 4.054688,5.3086 1.960924,0 3.437485,-0.37109 4.429687,-1.11328 0.72655,-0.53906 1.08983,-1.14453 1.08984,-1.81641 -10e-6,-0.35156 -0.0859,-0.52734 -0.25781,-0.52734 -0.0391,0 -0.0781,0.0156 -0.11719,0.0469 -1.19532,0.82813 -2.421885,1.24219 -3.679683,1.24219 -1.14845,0 -2.066418,-0.39062 -2.753907,-1.17188 -0.304697,-0.34374 -0.457041,-0.71093 -0.457031,-1.10156 -1e-5,-0.64062 0.371084,-1.26562 1.113281,-1.875 0.718739,-0.60155 1.660144,-1.08202 2.824219,-1.4414 0.92186,-0.28906 1.679671,-0.43359 2.273441,-0.4336 1.69529,1e-5 2.54295,1.22657 2.54296,3.67969 z m -28.980464,1.99219 c -1.8e-5,0.32031 -0.02345,0.63672 -0.07031,0.94922 -0.226579,1.49218 -1.332047,2.65234 -3.316406,3.48046 -1.83595,0.77344 -4.152353,1.16016 -6.949219,1.16016 -1.914067,0 -3.476566,-0.26563 -4.6875,-0.79687 -1.039063,-0.45313 -1.671875,-1.01172 -1.898437,-1.67579 -0.15625,-0.47656 -0.234375,-0.8789 -0.234375,-1.20703 0,-1.13281 1.078124,-1.84374 3.234375,-2.13281 0.726558,-0.0937 1.398433,-0.14062 2.015625,-0.14062 1.124993,0 2.015617,0.14063 2.671875,0.42187 0.656241,0.28125 0.984366,0.66797 0.984375,1.16016 -9e-6,0.51562 -0.23829,0.97266 -0.714844,1.37109 -0.593758,0.5 -1.492194,0.83594 -2.695313,1.00781 -0.718754,0.10157 -1.078129,0.25391 -1.078125,0.45703 -4e-6,0.21875 0.632808,0.32813 1.898438,0.32813 0.492181,0 0.92968,-0.0234 1.3125,-0.0703 1.101554,-0.13282 1.910147,-0.32422 2.425781,-0.57422 0.781239,-0.36719 1.156239,-0.91797 1.125,-1.65235 -0.101573,-2.3828 -1.277354,-3.57421 -3.527344,-3.57421 -0.22657,0 -0.685553,0.0274 -1.376953,0.082 -0.691412,0.0547 -1.181645,0.082 -1.470703,0.082 -2.359377,0 -3.539064,-0.80859 -3.539062,-2.42578 -2e-6,-0.38281 0.03516,-0.72656 0.105468,-1.03125 0.257811,-1.24218 0.964842,-2.23437 2.121094,-2.97657 1.32812,-0.85155 3.124994,-1.27733 5.390625,-1.27734 2.195302,10e-6 3.816394,0.19923 4.863281,0.59766 0.914048,0.34376 1.523423,0.89845 1.828125,1.66406 0.195297,0.47657 0.292953,0.85157 0.292969,1.125 -1.6e-5,0.88282 -0.937515,1.38673 -2.8125,1.51172 -0.351575,0.0156 -0.734387,0.0234 -1.148437,0.0234 -2.484385,0 -3.726571,-0.42968 -3.726563,-1.28907 -8e-6,-0.74999 0.433585,-1.31249 1.300781,-1.6875 0.109366,-0.0469 0.757803,-0.21483 1.945313,-0.5039 0.140613,-0.0312 0.210926,-0.0859 0.210937,-0.16407 -1.1e-5,-0.27342 -0.605479,-0.41014 -1.816406,-0.41015 -2.304695,10e-6 -3.457037,0.68751 -3.457031,2.0625 -6e-6,0.32032 0.06249,0.66407 0.1875,1.03125 0.289056,0.82813 0.74218,1.40626 1.359375,1.73437 0.507804,0.27345 1.207022,0.41017 2.097656,0.41016 0.304677,1e-5 0.796864,-0.0215 1.476563,-0.0644 0.679675,-0.043 1.187487,-0.0645 1.523437,-0.0645 1.312486,1e-5 2.29686,0.19923 2.953125,0.59766 0.796858,0.47657 1.195295,1.29688 1.195313,2.46094 z m -18.46875,-12.19922 c -6e-6,0.63283 -0.238287,1.35939 -0.714844,2.17969 -0.187504,0.32032 -0.375004,0.64063 -0.5625,0.96093 -0.195316,0.37502 -0.320316,0.71877 -0.375,1.03125 -0.164066,0.14845 -0.28516,0.22267 -0.363281,0.22266 -0.07813,1e-5 -0.125003,-0.039 -0.140625,-0.11719 -0.101566,-0.5703 -0.42969,-1.33202 -0.984375,-2.28515 -0.445314,-0.76561 -0.66797,-1.46093 -0.667969,-2.08594 -10e-7,-0.71873 0.193358,-1.33397 0.580078,-1.84571 0.386716,-0.51169 0.896482,-0.76755 1.529297,-0.76757 0.554683,2e-5 0.992183,0.31252 1.3125,0.9375 0.257807,0.51564 0.386713,1.10548 0.386719,1.76953 z m -5.109375,0.11719 c -1.2e-5,0.52345 -0.601574,0.96876 -1.804688,1.33593 -1.062509,0.32814 -2.187508,0.49221 -3.375,0.49219 -1.109381,2e-5 -2.019536,-0.20702 -2.730469,-0.62109 -0.820315,-0.48436 -1.230471,-1.17967 -1.230468,-2.08594 -3e-6,-1.17186 1.351558,-1.75779 4.054687,-1.75781 1.499992,2e-5 2.738272,0.27736 3.714844,0.83203 0.914051,0.51564 1.371082,1.1172 1.371094,1.80469 z m 0.09375,16.61718 c -1.585948,-0.28906 -3.273447,-0.43359 -5.0625,-0.43359 -1.726568,0 -4.140628,0.28516 -7.242188,0.85547 0.117188,-0.57813 0.25,-1.25 0.398438,-2.01563 1.249998,-0.14843 2.064451,-0.44726 2.443359,-0.89648 0.378903,-0.44922 0.697262,-1.2832 0.955078,-2.50195 0.249996,-1.15625 0.374996,-2.28515 0.375,-3.38672 -4e-6,-1.17187 -0.496097,-1.75781 -1.488281,-1.75782 -0.312502,10e-6 -0.609377,0.0352 -0.890625,0.10547 -0.429689,-0.9453 -0.644532,-1.62108 -0.644531,-2.02734 3.203121,-0.0234 6.195305,-0.55077 8.976562,-1.58203 0.03124,0.0234 0.04686,0.0899 0.04687,0.19922 -10e-6,0.17188 -0.03907,0.48438 -0.117187,0.9375 -0.50001,2.76563 -0.750009,5.06641 -0.75,6.90234 -9e-6,1.27344 0.152334,2.10547 0.457031,2.49609 0.18749,0.24219 0.453115,0.36329 0.796875,0.36329 0.390614,0 0.835926,-0.10547 1.335937,-0.31641 0.140614,-0.0547 0.222645,0.0117 0.246094,0.19922 0.08593,0.67969 0.140613,1.63281 0.164063,2.85937 z m -13.03125,0.48047 c -1.039071,-0.45312 -2.07032,-0.67969 -3.09375,-0.67969 -1.367192,0 -2.808597,0.36719 -4.324219,1.10157 -0.109376,0.0547 -0.179689,0.0742 -0.210938,0.0586 -0.03906,-0.0234 -0.04297,-0.0977 -0.01172,-0.22266 1.031247,-4.15624 1.546872,-7.56249 1.546875,-10.21875 -3e-6,-2.3203 -0.296878,-4.54686 -0.890625,-6.67968 -0.09375,-0.3203 -0.312502,-0.54686 -0.65625,-0.67969 -0.265626,-0.0937 -0.718751,-0.16405 -1.359375,-0.21094 -0.296875,-0.26561 -0.417969,-0.90232 -0.363282,-1.91015 0.04688,0.0156 0.183594,0.0234 0.410157,0.0234 1.156249,2e-5 3.707027,-0.21873 7.652343,-0.65625 0.531242,1.8594 0.796867,3.9258 0.796875,6.19922 -8e-6,4.18751 -0.785163,7.83594 -2.355468,10.94531 0.562493,-0.27343 1.128899,-0.41015 1.699218,-0.41015 0.453117,0 0.839836,0.0703 1.160157,0.21094 z m -9.84375,0 c -1.039071,-0.45312 -2.07032,-0.67969 -3.09375,-0.67969 -1.367192,0 -2.808597,0.36719 -4.324219,1.10157 -0.109376,0.0547 -0.179689,0.0742 -0.210938,0.0586 -0.03906,-0.0234 -0.04297,-0.0977 -0.01172,-0.22266 1.031247,-4.15624 1.546872,-7.56249 1.546875,-10.21875 -3e-6,-2.3203 -0.296878,-4.54686 -0.890625,-6.67968 -0.09375,-0.3203 -0.312502,-0.54686 -0.65625,-0.67969 -0.265626,-0.0937 -0.718751,-0.16405 -1.359375,-0.21094 -0.296875,-0.26561 -0.417969,-0.90232 -0.363282,-1.91015 0.04688,0.0156 0.183594,0.0234 0.410157,0.0234 1.156249,2e-5 3.707027,-0.21873 7.652343,-0.65625 0.531242,1.8594 0.796867,3.9258 0.796875,6.19922 -8e-6,4.18751 -0.785163,7.83594 -2.355468,10.94531 0.562493,-0.27343 1.128899,-0.41015 1.699218,-0.41015 0.453117,0 0.839836,0.0703 1.160157,0.21094 z m -9.398438,-12.45703 c -1.9e-5,1.46095 -0.375019,3.1797 -1.125,5.15625 -0.867204,2.27344 -1.953141,4.125 -3.257812,5.55469 -1.781263,1.94531 -3.82423,2.91796 -6.1289066,2.91797 -2.117194,-10e-6 -3.9765671,-0.92579 -5.578125,-2.77735 -1.65625136,-1.92187 -2.48437553,-4.23827 -2.48437503,-6.94922 -5e-7,-2.58592 0.8554674,-4.82811 2.56640623,-6.72656 1.8828076,-2.08592 4.3242114,-3.12889 7.3242188,-3.1289 5.7890466,10e-6 8.6835746,1.98439 8.6835936,5.95312 z m -3.1875,3.25781 c -1.6e-5,-1.09374 -0.617203,-2.01561 -1.851562,-2.76562 -1.203138,-0.74999 -2.652356,-1.12499 -4.3476566,-1.125 -1.5312582,10e-6 -3.0234442,0.4297 -4.4765625,1.28906 -1.5234412,0.89845 -2.2851592,1.88673 -2.2851563,2.96484 -2.9e-6,1.25782 0.7070276,2.30079 2.1210938,3.12891 1.2265562,0.71094 2.5351486,1.06641 3.9257812,1.06641 1.7499894,0 3.3476444,-0.49609 4.7929684,-1.48828 1.414048,-0.96094 2.121078,-1.98437 2.121094,-3.07032 z" id="svgstore2745c66fecda7b264641f446c1e2195fpath4586" transform="translate(0,-418.90625)" opacity="1" visibility="false"/> </symbol><symbol viewBox="0 0 32 32" id="icon-mail"><title>mail</title> <g id="svgstorefd39ce655fdda3e27ebaba0028d27f30icomoon-ignore"> <line stroke-width="1" x1="" y1="" x2="" y2="" opacity=""/> </g> <path d="M28 5h-24c-2.209 0-4 1.792-4 4v13c0 2.209 1.791 4 4 4h24c2.209 0 4-1.791 4-4v-13c0-2.208-1.791-4-4-4zM2 10.25l6.999 5.25-6.999 5.25v-10.5zM30 22c0 1.104-0.898 2-2 2h-24c-1.103 0-2-0.896-2-2l7.832-5.875 4.368 3.277c0.533 0.398 1.166 0.6 1.8 0.6 0.633 0 1.266-0.201 1.799-0.6l4.369-3.277 7.832 5.875zM30 20.75l-7-5.25 7-5.25v10.5zM17.199 18.602c-0.349 0.262-0.763 0.4-1.199 0.4s-0.851-0.139-1.2-0.4l-12.8-9.602c0-1.103 0.897-2 2-2h24c1.102 0 2 0.897 2 2l-12.801 9.602z" opacity="1" visibility="false"/> </symbol><symbol viewBox="0 0 32 32" id="icon-menu"><title>menu</title> <g id="svgstoreb276ef80bb8cf4ef46ffd6e0c10a7238icomoon-ignore"> <line stroke-width="1" x1="" y1="" x2="" y2="" opacity=""/> </g> <path d="M2 6h28v6h-28zM2 14h28v6h-28zM2 22h28v6h-28z" opacity="1" visibility="false"/> </symbol><symbol viewBox="0 0 32 32" id="icon-search"><title>search</title> <g id="svgstorea698030f040104f2981845a708325e02icomoon-ignore"> <line stroke-width="1" x1="" y1="" x2="" y2="" opacity=""/> </g> <path d="M19.768 9.332c1.44 0.333 2.586 1.56 2.919 2.9 0.114 0.627 0.66 1.1 1.314 1.1 0.733 0 1.333-0.6 1.333-1.333 0-0.96-0.807-2.42-1.907-3.513-1.080-1.067-2.367-1.82-3.427-1.82-0.733 0-1.333 0.62-1.333 1.353 0 0.653 0.473 1.2 1.1 1.313zM1.441 26.812c-1.033 1.033-1.033 2.713 0 3.746 1.033 1.034 2.713 1.034 3.74 0l7.659-7.653c1.787 1.115 3.893 1.761 6.16 1.761 6.447 0 11.667-5.22 11.667-11.667s-5.22-11.667-11.667-11.667-11.667 5.22-11.667 11.667c0 2.26 0.647 4.373 1.761 6.16l-7.653 7.653zM10.668 12.999c0-4.6 3.734-8.333 8.333-8.333s8.333 3.733 8.333 8.333-3.733 8.333-8.333 8.333c-4.599-0.001-8.333-3.734-8.333-8.333z" opacity="1" visibility="false"/> </symbol><symbol viewBox="0 0 32 32" id="icon-twitter"><title>twitter</title> <g id="svgstore2dfca1e2ed11aaeef3b18dfd34c84781icomoon-ignore"> <line stroke-width="1" x1="" y1="" x2="" y2="" opacity=""/> </g> <path d="M32 6.076c-1.177 0.522-2.443 0.875-3.771 1.034 1.355-0.813 2.396-2.099 2.887-3.632-1.269 0.752-2.674 1.299-4.169 1.593-1.198-1.276-2.904-2.073-4.792-2.073-3.626 0-6.565 2.939-6.565 6.565 0 0.515 0.058 1.016 0.17 1.496-5.456-0.274-10.294-2.888-13.532-6.86-0.565 0.97-0.889 2.097-0.889 3.301 0 2.278 1.159 4.287 2.921 5.465-1.076-0.034-2.088-0.329-2.974-0.821-0.001 0.027-0.001 0.055-0.001 0.083 0 3.181 2.263 5.834 5.266 6.437-0.551 0.15-1.131 0.23-1.73 0.23-0.423 0-0.834-0.041-1.235-0.118 0.835 2.608 3.26 4.506 6.133 4.559-2.247 1.761-5.078 2.81-8.154 2.81-0.53 0-1.052-0.031-1.566-0.092 2.905 1.863 6.356 2.95 10.064 2.95 12.076 0 18.679-10.004 18.679-18.68 0-0.285-0.006-0.568-0.019-0.849 1.283-0.926 2.396-2.082 3.276-3.398z" opacity="1" visibility="false"/> </symbol></svg>