<?xml version="1.0" encoding="UTF-8" standalone="no"?>
<!-- Created with Inkscape (http://www.inkscape.org/) -->

<svg
   xmlns:dc="http://purl.org/dc/elements/1.1/"
   xmlns:cc="http://creativecommons.org/ns#"
   xmlns:rdf="http://www.w3.org/1999/02/22-rdf-syntax-ns#"
   xmlns:svg="http://www.w3.org/2000/svg"
   xmlns="http://www.w3.org/2000/svg"
   xmlns:sodipodi="http://sodipodi.sourceforge.net/DTD/sodipodi-0.dtd"
   xmlns:inkscape="http://www.inkscape.org/namespaces/inkscape"
   version="1.1"
   width="190.47179"
   height="48.110741"
   viewBox="0 0 190.47179 48.110742"
   preserveAspectRatio="none"
   id="svg3227"
   inkscape:version="0.48.4 r"
   sodipodi:docname="logo.svg">
  <metadata
     id="metadata3234">
    <rdf:RDF>
      <cc:Work
         rdf:about="">
        <dc:format>image/svg+xml</dc:format>
        <dc:type
           rdf:resource="http://purl.org/dc/dcmitype/StillImage" />
        <dc:title></dc:title>
      </cc:Work>
    </rdf:RDF>
  </metadata>
  <defs
     id="defs3232" />
  <sodipodi:namedview
     pagecolor="#ffffff"
     bordercolor="#666666"
     borderopacity="1"
     objecttolerance="10"
     gridtolerance="10"
     guidetolerance="10"
     inkscape:pageopacity="0"
     inkscape:pageshadow="2"
     inkscape:window-width="1920"
     inkscape:window-height="1028"
     id="namedview3230"
     showgrid="false"
     fit-margin-top="0"
     fit-margin-left="0"
     fit-margin-right="0"
     fit-margin-bottom="0"
     inkscape:zoom="2.5448276"
     inkscape:cx="23.184282"
     inkscape:cy="-47.578487"
     inkscape:window-x="-8"
     inkscape:window-y="-8"
     inkscape:window-maximized="1"
     inkscape:current-layer="svg3227" />
  <path
     d="m 190.47178,27.357 c -2e-5,1.640621 -0.4844,3.046871 -1.45313,4.218751 -1.17189,1.41406 -2.83205,2.12109 -4.98047,2.12109 -1.08595,0 -2.64649,-0.17188 -4.68164,-0.51563 -2.03516,-0.34375 -3.43555,-0.51562 -4.20117,-0.51562 -1.03907,0 -1.84766,0.19141 -2.42578,0.57422 l 0.0469,-2.97656 c 0.23438,-0.10156 0.53125,-0.15235 0.89063,-0.15235 0.57812,0 1.17187,0.15235 1.78125,0.45703 -1.02344,-3.617181 -1.53516,-7.632801 -1.53516,-12.046871 0,-0.0625 0.004,-0.1621 0.0117,-0.29883 0.008,-0.1367 0.0117,-0.23631 0.0117,-0.29883 0,-0.53123 -0.25,-0.85154 -0.75,-0.96094 -0.50781,-0.0703 -1.01172,-0.1406 -1.51172,-0.21093 -0.14062,-0.0469 -0.21094,-0.40624 -0.21094,-1.07813 0,-0.72654 0.0391,-1.24998 0.11719,-1.57031 1.69531,1.04689 3.71875,1.57033 6.07031,1.57031 1.15625,2e-5 2.42968,-0.12889 3.82032,-0.38672 1.03905,-0.19529 1.93358,-0.29295 2.68359,-0.29297 1.6328,2e-5 2.8242,0.39455 3.57422,1.1836 0.56248,0.58595 0.84373,1.33595 0.84375,2.25 -2e-5,2.43751 -1.03127,3.98829 -3.09375,4.65234 0.10936,-0.0156 0.28514,-0.0234 0.52734,-0.0234 1.49999,1e-5 2.65233,0.46876 3.45703,1.40625 0.67186,0.78126 1.0078,1.7461 1.00782,2.89454 z m -4.80469,-7.96875 c -2e-5,-0.40624 -0.37111,-0.73046 -1.11328,-0.97266 -0.66408,-0.21874 -1.45314,-0.32811 -2.36719,-0.32813 -1.09376,2e-5 -2.22657,0.23049 -3.39844,0.69141 -1.20313,0.47658 -1.80469,0.96095 -1.80469,1.45313 0,0.35938 0.39844,0.68751 1.19532,0.98437 0.77343,0.28126 1.58983,0.42189 2.44922,0.42188 0.96092,10e-6 2.0078,-0.21874 3.14062,-0.65625 1.26561,-0.49218 1.89842,-1.02343 1.89844,-1.59375 z m 2.13281,8.47265 c -2e-5,-0.58593 -0.59376,-1.09765 -1.78125,-1.53515 -1.1172,-0.41406 -2.31251,-0.62109 -3.58594,-0.6211 -1.00001,10e-6 -1.9336,0.1211 -2.80078,0.36328 -1.00001,0.28126 -1.5,0.63673 -1.5,1.06641 0,0.52344 0.57421,1.05079 1.72266,1.582031 1.17968,0.54688 2.3828,0.82032 3.60937,0.82031 1.24218,10e-6 2.27538,-0.15429 3.09961,-0.46289 0.82421,-0.30859 1.23631,-0.712881 1.23633,-1.212891 z m -15.55078,3.000001 c -0.25002,0.46094 -0.64065,1.15625 -1.17188,2.08594 -1.28127,-0.0625 -2.1758,-0.0937 -2.68359,-0.0937 -1.75783,0 -3.6797,0.17578 -5.76562,0.52734 0.19529,-1.34375 0.29295,-2.67187 0.29296,-3.98437 -1e-5,-1.445311 -0.1211,-2.574211 -0.36328,-3.386721 -1.28907,-0.12499 -3.29688,-0.33984 -6.02343,-0.64453 -0.25782,0.91407 -0.5547,1.83204 -0.89063,2.7539 -0.38282,1.054701 -0.79688,1.953131 -1.24219,2.695321 0.46094,0.10937 1.65234,0.21094 3.57422,0.30468 -0.14844,1.00782 -0.22266,1.92969 -0.22265,2.76563 -1.77345,-0.59375 -3.4297,-1.08203 -4.96875,-1.46484 -1.02344,-0.25782 -2.33594,-0.53125 -3.9375,-0.82032 0.21875,-0.28125 0.48437,-0.64062 0.79687,-1.07812 l 0.62109,-0.85547 c 0.28125,0.11719 0.73047,0.31641 1.34766,0.59766 1.17968,-1.625 2.24218,-3.984371 3.1875,-7.078131 0.99999,-3.24217 1.53906,-5.90623 1.61719,-7.99219 1.16405,-0.1406 2.24218,-0.31639 3.23437,-0.52734 1.02343,-0.22654 2.1289,-0.53904 3.31641,-0.9375 1.15623,1.88283 2.42576,4.72267 3.80859,8.51953 0.6328,1.83595 1.47264,4.26563 2.51953,7.289061 0.14842,0.40626 0.58202,0.72266 1.30079,0.94922 0.55466,0.125 1.10544,0.25 1.65234,0.375 z M 163.29599,20.37262 c -1e-5,-1.0703 -0.72657,-1.60545 -2.17968,-1.60547 -1.0547,2e-5 -2.00783,0.28127 -2.85938,0.84375 -0.89063,0.58595 -1.33594,1.26173 -1.33594,2.02735 0,1.01563 0.87109,1.52344 2.61329,1.52343 2.5078,10e-6 3.7617,-0.92967 3.76171,-2.78906 z m -14.34375,6.29297 c -1e-5,1.17969 -0.1797,2.332031 -0.53906,3.457031 -0.25783,0.8125 -0.6133,1.60156 -1.0664,2.36719 -0.25002,0.39062 -0.49611,0.78515 -0.73829,1.18359 -0.0625,0.10156 -0.16798,0.14063 -0.3164,0.11719 -2.88283,-0.4375 -5.62501,-0.65625 -8.22656,-0.65625 -3.43751,0 -5.50391,0.47265 -6.19922,1.41797 l -0.52735,-2.95313 c 0.42188,-0.28125 0.96484,-0.42187 1.62891,-0.42187 0.33593,0 0.72265,0.0469 1.16016,0.14062 -1.07813,-2.69531 -1.61719,-6.406241 -1.61719,-11.132811 0,-0.35155 0.01,-0.88866 0.0293,-1.61133 0.0195,-0.72264 0.0293,-1.27537 0.0293,-1.6582 0,-0.66405 -0.35547,-1.06248 -1.06641,-1.19531 -0.25781,-0.0312 -0.65625,-0.0976 -1.19531,-0.19922 -0.21094,-0.0547 -0.31641,-0.42967 -0.31641,-1.125 0,-0.17967 0.0156,-0.34764 0.0469,-0.50391 0.14844,0.0703 3.66406,0.4219 10.54688,1.05469 -0.66407,1.35158 -1.26954,3.10939 -1.81641,5.27344 -0.58594,2.28907 -0.87891,4.17188 -0.87891,5.64843 0,3.539071 1.35156,5.308601 4.05469,5.308601 1.96093,0 3.43749,-0.37109 4.42969,-1.11328 0.72655,-0.53906 1.08983,-1.14453 1.08984,-1.816411 -1e-5,-0.35156 -0.0859,-0.52734 -0.25781,-0.52734 -0.0391,0 -0.0781,0.0156 -0.11719,0.0469 -1.19532,0.828131 -2.42189,1.242191 -3.67968,1.242191 -1.14845,0 -2.06642,-0.39062 -2.75391,-1.171881 -0.3047,-0.34374 -0.45704,-0.71093 -0.45703,-1.10156 -1e-5,-0.64062 0.37108,-1.26562 1.11328,-1.875 0.71874,-0.60155 1.66014,-1.08202 2.82422,-1.4414 0.92186,-0.28906 1.67967,-0.43359 2.27344,-0.4336 1.69529,10e-6 2.54295,1.22657 2.54296,3.67969 z m -28.98046,1.992191 c -2e-5,0.32031 -0.0234,0.63672 -0.0703,0.94922 -0.22658,1.49218 -1.33205,2.65234 -3.31641,3.48046 -1.83595,0.77344 -4.15235,1.16016 -6.94922,1.16016 -1.91407,0 -3.47657,-0.26563 -4.6875,-0.79687 -1.03906,-0.45313 -1.67187,-1.01172 -1.89844,-1.67579 -0.15625,-0.47656 -0.23437,-0.8789 -0.23437,-1.20703 0,-1.13281 1.07812,-1.84374 3.23437,-2.13281 0.72656,-0.0937 1.39844,-0.140621 2.01563,-0.140621 1.12499,0 2.01562,0.140631 2.67187,0.421871 0.65624,0.28125 0.98437,0.66797 0.98438,1.16016 -1e-5,0.51562 -0.23829,0.97266 -0.71485,1.37109 -0.59375,0.5 -1.49219,0.83594 -2.69531,1.00781 -0.71875,0.10157 -1.07813,0.25391 -1.07812,0.45703 -10e-6,0.21875 0.6328,0.32813 1.89843,0.32813 0.49219,0 0.92968,-0.0234 1.3125,-0.0703 1.10156,-0.13282 1.91015,-0.32422 2.42579,-0.57422 0.78123,-0.36719 1.15623,-0.91797 1.125,-1.65235 -0.10158,-2.382801 -1.27736,-3.574211 -3.52735,-3.574211 -0.22657,0 -0.68555,0.0274 -1.37695,0.082 -0.69141,0.0547 -1.18165,0.082 -1.4707,0.082 -2.35938,0 -3.53907,-0.80859 -3.53907,-2.42578 0,-0.38281 0.0352,-0.72656 0.10547,-1.03125 0.25781,-1.24218 0.96484,-2.23437 2.1211,-2.97657 1.32812,-0.85155 3.12499,-1.27733 5.39062,-1.27734 2.1953,10e-6 3.81639,0.19923 4.86328,0.59766 0.91405,0.34376 1.52342,0.89845 1.82813,1.66406 0.19529,0.47657 0.29295,0.85157 0.29297,1.125 -2e-5,0.88282 -0.93752,1.38673 -2.8125,1.51172 -0.35158,0.0156 -0.73439,0.0234 -1.14844,0.0234 -2.48439,0 -3.72657,-0.42968 -3.72656,-1.28907 -1e-5,-0.74999 0.43358,-1.31249 1.30078,-1.6875 0.10936,-0.0469 0.7578,-0.21483 1.94531,-0.5039 0.14061,-0.0312 0.21093,-0.0859 0.21094,-0.16407 -10e-6,-0.27342 -0.60548,-0.41014 -1.81641,-0.41015 -2.30469,1e-5 -3.45704,0.68751 -3.45703,2.0625 -1e-5,0.32032 0.0625,0.66407 0.1875,1.03125 0.28906,0.82813 0.74218,1.40626 1.35937,1.73437 0.50781,0.27345 1.20703,0.41017 2.09766,0.41016 0.30468,10e-6 0.79686,-0.0215 1.47656,-0.0644 0.67968,-0.043 1.18749,-0.0645 1.52344,-0.0645 1.31249,10e-6 2.29686,0.19923 2.95313,0.59766 0.79685,0.47657 1.19529,1.29688 1.19531,2.460941 z M 101.50303,16.45856 c -10e-6,0.63283 -0.23829,1.35939 -0.71485,2.17969 -0.1875,0.32032 -0.375,0.64063 -0.5625,0.96093 -0.19531,0.37502 -0.320314,0.71877 -0.375004,1.03125 -0.16406,0.14845 -0.28516,0.22267 -0.36328,0.22266 -0.0781,10e-6 -0.125,-0.039 -0.14062,-0.11719 -0.10157,-0.5703 -0.42969,-1.33202 -0.98438,-2.28515 -0.44531,-0.76561 -0.66797,-1.46093 -0.66797,-2.08594 0,-0.71873 0.19336,-1.33397 0.58008,-1.84571 0.38672,-0.51169 0.89648,-0.76755 1.5293,-0.76757 0.554684,2e-5 0.992184,0.31252 1.312504,0.9375 0.2578,0.51564 0.38671,1.10548 0.38672,1.76953 z m -5.109384,0.11719 c -1e-5,0.52345 -0.60157,0.96876 -1.80469,1.33593 -1.06251,0.32814 -2.1875,0.49221 -3.375,0.49219 -1.10938,2e-5 -2.01953,-0.20702 -2.73047,-0.62109 -0.82031,-0.48436 -1.23047,-1.17967 -1.23046,-2.08594 -1e-5,-1.17186 1.35155,-1.75779 4.05468,-1.75781 1.5,2e-5 2.73828,0.27736 3.71485,0.83203 0.91405,0.51564 1.37108,1.1172 1.37109,1.80469 z m 0.0937,16.617181 c -1.58595,-0.28906 -3.27345,-0.43359 -5.0625,-0.43359 -1.72657,0 -4.14063,0.28516 -7.24219,0.85547 0.11719,-0.57813 0.25,-1.25 0.39844,-2.01563 1.25,-0.14843 2.06445,-0.44726 2.44336,-0.89648 0.3789,-0.44922 0.69726,-1.2832 0.95508,-2.501951 0.24999,-1.15625 0.37499,-2.28515 0.375,-3.38672 -10e-6,-1.17187 -0.4961,-1.75781 -1.48828,-1.75782 -0.3125,10e-6 -0.60938,0.0352 -0.89063,0.10547 -0.42969,-0.9453 -0.64453,-1.62108 -0.64453,-2.02734 3.20312,-0.0234 6.19531,-0.55077 8.97656,-1.58203 0.0312,0.0234 0.0469,0.0899 0.0469,0.19922 -1e-5,0.17188 -0.0391,0.48438 -0.11718,0.9375 -0.50001,2.76563 -0.75001,5.06641 -0.75,6.90234 -1e-5,1.273441 0.15233,2.105471 0.45703,2.496091 0.18749,0.24219 0.45311,0.36329 0.79687,0.36329 0.39062,0 0.83593,-0.10547 1.33594,-0.31641 0.14061,-0.0547 0.22264,0.0117 0.24609,0.19922 0.0859,0.67969 0.14062,1.63281 0.16407,2.85937 z m -13.03125,0.48047 c -1.03907,-0.45312 -2.07032,-0.67969 -3.09375,-0.67969 -1.36719,0 -2.8086,0.36719 -4.32422,1.10157 -0.10937,0.0547 -0.17969,0.0742 -0.21094,0.0586 -0.0391,-0.0234 -0.043,-0.0977 -0.0117,-0.22266 1.03125,-4.15624 1.54688,-7.562491 1.54688,-10.218751 0,-2.3203 -0.29688,-4.54686 -0.89063,-6.67968 -0.0937,-0.3203 -0.3125,-0.54686 -0.65625,-0.67969 -0.26562,-0.0937 -0.71875,-0.16405 -1.35937,-0.21094 -0.29688,-0.26561 -0.41797,-0.90232 -0.36328,-1.91015 0.0469,0.0156 0.18359,0.0234 0.41015,0.0234 1.15625,2e-5 3.70703,-0.21873 7.65235,-0.65625 0.53124,1.8594 0.79686,3.9258 0.79687,6.19922 -1e-5,4.18751 -0.78516,7.83594 -2.35547,10.945311 0.5625,-0.27343 1.1289,-0.41015 1.69922,-0.41015 0.45312,0 0.83984,0.0703 1.16016,0.21094 z m -9.84375,0 c -1.03907,-0.45312 -2.07032,-0.67969 -3.09375,-0.67969 -1.36719,0 -2.8086,0.36719 -4.32422,1.10157 -0.10937,0.0547 -0.17969,0.0742 -0.21094,0.0586 -0.0391,-0.0234 -0.043,-0.0977 -0.0117,-0.22266 1.03125,-4.15624 1.54688,-7.562491 1.54688,-10.218751 0,-2.3203 -0.29688,-4.54686 -0.89063,-6.67968 -0.0937,-0.3203 -0.3125,-0.54686 -0.65625,-0.67969 -0.26562,-0.0937 -0.71875,-0.16405 -1.35937,-0.21094 -0.29688,-0.26561 -0.41797,-0.90232 -0.36328,-1.91015 0.0469,0.0156 0.18359,0.0234 0.41015,0.0234 1.15625,2e-5 3.70703,-0.21873 7.65235,-0.65625 0.53124,1.8594 0.79686,3.9258 0.79687,6.19922 -1e-5,4.18751 -0.78516,7.83594 -2.35547,10.945311 0.5625,-0.27343 1.1289,-0.41015 1.69922,-0.41015 0.45312,0 0.83984,0.0703 1.16016,0.21094 z M 64.213906,21.21637 c -2e-5,1.46095 -0.37502,3.1797 -1.125,5.15625 -0.8672,2.273441 -1.95314,4.125001 -3.25781,5.554691 -1.78126,1.94531 -3.82423,2.91796 -6.12891,2.91797 -2.11719,-1e-5 -3.97656,-0.92579 -5.57812,-2.77735 -1.65625,-1.92187 -2.48438,-4.238271 -2.48438,-6.949221 0,-2.58592 0.85547,-4.82811 2.56641,-6.72656 1.88281,-2.08592 4.32421,-3.12889 7.32422,-3.1289 5.78905,1e-5 8.68357,1.98439 8.68359,5.95312 z m -3.1875,3.25781 c -1e-5,-1.09374 -0.6172,-2.01561 -1.85156,-2.76562 -1.20314,-0.74999 -2.65235,-1.12499 -4.34766,-1.125 -1.53125,1e-5 -3.02344,0.4297 -4.47656,1.28906 -1.52344,0.89845 -2.28516,1.88673 -2.28515,2.96484 -10e-6,1.25782 0.70702,2.30079 2.12109,3.12891 1.22656,0.710941 2.53515,1.066411 3.92578,1.066411 1.74999,0 3.34765,-0.49609 4.79297,-1.488281 1.41405,-0.96094 2.12108,-1.98437 2.12109,-3.07032 z"
     id="path4586"
     visibility="false"
     inkscape:connector-curvature="0"
     style="fill:#000000" />
  <g
     id="g3333"
     transform="matrix(1.5034607,0,0,1.5034607,7.5199236e-4,0)">
    <g
       id="icomoon-ignore" />
    <path
       id="path3325"
       d="M 20.682,3.732 C 20.209,3.26 19.582,3 18.914,3 18.246,3 17.619,3.26 17.144,3.733 l -1.41,1.412 C 15.261,5.617 15,6.245 15,6.914 c 0,0.471 0.129,0.922 0.371,1.313 L 1.794,13.666 c -0.908,0.399 -1.559,1.218 -1.742,2.189 -0.185,0.977 0.125,1.979 0.834,2.687 l 12.72,12.58 c 0.548,0.548 1.276,0.859 2.045,0.877 C 15.669,32 15.711,32 15.729,32 c 0.202,0 0.407,-0.021 0.61,-0.062 0.994,-0.206 1.808,-0.893 2.177,-1.828 l 5.342,-13.376 c 0.402,0.265 0.875,0.407 1.367,0.407 0.67,0 1.297,-0.261 1.768,-0.733 L 28.4,15 c 0.477,-0.474 0.738,-1.103 0.738,-1.773 0,-0.67 -0.262,-1.3 -0.732,-1.768 L 20.682,3.732 z m -4.023,25.635 c -0.124,0.313 -0.397,0.544 -0.727,0.612 -0.076,0.016 -0.153,0.022 -0.229,0.021 -0.254,-0.006 -0.499,-0.108 -0.682,-0.292 L 2.293,17.12 C 2.059,16.887 1.956,16.553 2.018,16.227 2.079,15.903 2.297,15.629 2.6,15.497 l 6.217,-2.49 c 4.189,1.393 8.379,0.051 12.57,4.522 L 16.659,29.367 z M 26.992,13.58 25.578,14.993 c -0.195,0.196 -0.512,0.196 -0.707,0 l -1.768,-1.767 -1.432,3.589 0.119,-0.303 C 18.78,13.507 15.721,13.128 12.961,12.789 12.074,12.68 11.214,12.566 10.369,12.384 L 18.86,8.983 17.145,7.268 c -0.195,-0.195 -0.195,-0.512 0,-0.707 l 1.414,-1.415 c 0.195,-0.195 0.512,-0.195 0.707,0 l 7.725,7.727 c 0.198,0.195 0.198,0.512 0.001,0.707 z M 16.5,21 C 17.878,21 19,19.879 19,18.5 19,17.121 17.879,16 16.5,16 15.121,16 14,17.121 14,18.5 c 0,1.379 1.122,2.5 2.5,2.5 z m 0,-4 C 17.328,17 18,17.672 18,18.5 18,19.328 17.328,20 16.5,20 15.671,20 15,19.328 15,18.5 15,17.672 15.671,17 16.5,17 z M 29.5,0 C 28.121,0 27,1.121 27,2.5 27,3.879 28.121,5 29.5,5 30.879,5 32,3.879 32,2.5 32,1.121 30.879,0 29.5,0 z m 0,4 C 28.672,4 28,3.328 28,2.5 28,1.672 28.672,1 29.5,1 30.328,1 31,1.672 31,2.5 31,3.328 30.328,4 29.5,4 z M 8,17 c 0,1.103 0.897,2 2,2 1.103,0 2,-0.897 2,-2 0,-1.103 -0.897,-2 -2,-2 -1.103,0 -2,0.897 -2,2 z m 2,-1 c 0.552,0 1,0.447 1,1 0,0.553 -0.448,1 -1,1 -0.552,0 -1,-0.447 -1,-1 0,-0.553 0.448,-1 1,-1 z m 2,7 c 0,-0.552 0.448,-1 1,-1 0.552,0 1,0.448 1,1 0,0.552 -0.448,1 -1,1 -0.552,0 -1,-0.448 -1,-1 z M 28,8 c 0,-0.552 0.448,-1 1,-1 0.552,0 1,0.448 1,1 0,0.552 -0.448,1 -1,1 -0.552,0 -1,-0.448 -1,-1 z"
       inkscape:connector-curvature="0"
       style="fill:#000000" />
  </g>
</svg>
